# xmcd
#
# Track frame offsets: 
#        150
#        16600
#        31762
#        49939
#        64987
#        82837
#        97907
#        112044
#        132180
#        149151
#        164317
#        180455
#        198490
#        220663
#        241813
#        261954
#        281875
#        301168
#        322857
#        342155
#
# Disc length: 4773 seconds
#
# Revision: 0
# Processed by: cddbd v1.5.1PL0 Copyright (c) Steve Scherf et al.
# Submitted via: ExactAudioCopy v0.95a5
#
DISCID=1512a314
DTITLE=А-Студио - Улетаю...
DYEAR=2005
DGENRE=Pop
TTITLE0=Ночь-Подруга (Remix)
TTITLE1=Улетаю...
TTITLE2=Белые Ночи Любви
TTITLE3=Сновидения
TTITLE4=My World
TTITLE5=You Appreciate
TTITLE6=I'll Be Around (feat. Mr.Slan)
TTITLE7=Ты (feat. Mr.ZieD)
TTITLE8=Учкудук
TTITLE9=Ночь-Подруга (Танго)
TTITLE10=Такие Дела
TTITLE11=Отпусти
TTITLE12=Джулия
TTITLE13=Сезон Дождей
TTITLE14=Полнолуние
TTITLE15=Любовь-Река
TTITLE16=Помни Это
TTITLE17=Лето Умчалось В Осень
TTITLE18=Стоп, Ночь (Remix)
TTITLE19=S.O.S. (Remix)
EXTD=
EXTT0=
EXTT1=
EXTT2=
EXTT3=
EXTT4=
EXTT5=
EXTT6=
EXTT7=
EXTT8=
EXTT9=
EXTT10=
EXTT11=
EXTT12=
EXTT13=
EXTT14=
EXTT15=
EXTT16=
EXTT17=
EXTT18=
EXTT19=
PLAYORDER=
